<svg xmlns="http://www.w3.org/2000/svg" fill="none" viewBox="0 0 48 48"><path fill="#B11116" fill-rule="evenodd" d="M4.31 31.47 12 44.78h5.73l-7.66-13.2 1.47-2.53 9.08 15.73H36l2.87-4.97H23.58L14.45 24l3.33-5.76h-5.83zm36 5.85L48 24l-2.87-4.97-7.6 13.24H34.6l9.09-15.74L36 3.22h-5.74l7.65 13.23-9.14 15.82h-6.65l2.92 5.05zM25.86 10.68 24.4 8.15l-15.27.03L12 3.22h15.38l7.64 13.22-2.92 5.05-3.33-5.76H10.51L2.87 28.97 0 24l7.69-13.32z" clip-rule="evenodd"/><path fill="#00A1BF" fill-rule="evenodd" d="M24 18.26a5.83 5.83 0 1 1 0 11.66 5.83 5.83 0 0 1 0-11.66" clip-rule="evenodd"/></svg>