<svg xmlns="http://www.w3.org/2000/svg" fill="none" viewBox="0 0 48 48"><path fill="#FECC09" fill-rule="evenodd" d="M3 48h42v-.44H3zm0-.64h42v-1.05H3zm25.07-35.81-3 19s-.2 3.35 1.52 5.25c.84.92 1.87 1.17 2.82 1.72.84.48 1.8 1.36 1.95 2.4.23 1.64-1.5 1.86-2.42 1.5a6 6 0 0 0-2.7-.46c-2.19.1-2.68 1.67-2.67 2.24.02 1.97 1.88 2.7 1.88 2.7l-3.25.02c-8.34.07-11.2-5.65-12.26-12.26l-3.57-22.1zm14.34 34.32H27.82s-3.1-.06-3.07-2.28c.03-1.8 2-2.38 4.33-1.6.63.2 1.64.21 2.88.37 1.26.17 2.76-.06 4.65.78.15.06.5 0 .9 0 .36.02.79.12.88.08.55-.19.83-.48 1.36-.46.2 0 .4.18.51.33.16-.13.26-.23.45-.23.45 0 .63.67.91 1.1.77.16 1.34 1.1 1.46 1.6.03.1-.23.23-.3.17-.37-.3-1.85-2.26-2.08-2.25-.1 0 .16.52.2.7-.39-.26-1.1-1.25-1.38-.96-.35.36.87 1.22.36 1.4-.28.09-.88-.47-1.6-.7-.6-.2-1.8-.09-1.98-.19-1.37-.85-4.81-.73-7.35-.92-.43-.03-.93-.29-1.56-.34-.84-.07-1.71.22-1.7 1.2 0 .5.45 1.43 1.77 1.47 3.25.1 8.74-.05 8.74-.05l-.7-.5s-6.26-.05-7.68-.11c-.66-.03-.83-.75-.76-.96.16-.48.91-.35.91-.35s.82.1 1.23.12c1.3.07 4.88.36 6.54.85.47.14 1.32.09 1.9.2 1.07.19 1.51.42 2.31 1.04h.63s-.1-.57-.01-.7c.08-.13.22-.1.37-.04s.3.26.42.3c.13.03.17-.13.3-.1.28.05.5.42.66.67.07.11.1.36.1.36M21.07 42.5c-.18.6.06.97.55 1.19l-2.82.82a.7.7 0 0 1-.87-.48.6.6 0 0 1 .4-.73zm2.47-.7q-.1.77-.23 1.4l-1.14.33c-.34-.07-.69-.23-.74-.62-.03-.25.12-.46.32-.6zm-2.46-.9c-.36.5-.19.96.43 1.22l-2.8.82a.7.7 0 0 1-.88-.48.6.6 0 0 1 .4-.72zm10.6-17.97c-1.48.7-3.6 2.86-4.45 4.57l-.31.6a12 12 0 0 0-1.1 3.29c-.3 1.64-.05 2.95.7 3.8.57.64 1.02.9 2.98 1.73.25.1.44.2.86.43a3.36 3.36 0 0 1 1.57 4.22c-.1.26-.15.27 1.16.38 1.51.12 2.66.32 3.07.53-.17-2.18-.6-8.06-.74-9.42-.02-.18-.12-.2-.22-.21-.33 0-.92-.01-1.27-.2.15-.18.3-.3.53-.45l-.65-.03c-.96-.1-1.19-.53-.3-.99 0 0-1.24.15-1.23-.9 0-.2.02-.28.2-.24.17.05.56.04.56 0 0-.12-.23-.17-.35-.22-.27-.1-.4-.31-.48-.56-.08-.24.02-.3.37-.46.48-.22.5-.41.08-.41-.87 0-.85-1.35-.05-2.05.4-.35.43-.47.15-.56-.4-.13-.98-.83-.95-1.47.04-.93 2.16-1.42 2.5-.57.1.23.5.27.48 0 0-.15.26-.4.57-.53.14-.06-.22-.3-.49-.43a4 4 0 0 0-2.08-.16c-.68.13-.81.17-1.1.31m-8.06 17.23q.01.75-.05 1.36l-1.45.43c-.77-.1-1.03-.61-.61-1.17zm.48 1.37s.23-3.9-1.04-6.6c-1.37-2.91-4.5-6.01-6.3-8.05-.18-.22-.43-.8-.4-1.24.17-1.92 2.89-1.47 2.89-1.47s.07.62.18.9c.9 2.25 3.68 5.04 4.99 7.63 1.34 2.64 2.76 7.99 2.76 7.99q-2.28-.29-3.08.84m-3.27-2.15c-.2.7.12 1 .5 1.2l-2.8.81a.7.7 0 0 1-.87-.48.6.6 0 0 1 .4-.72zm2.65-.78q.1.7.13 1.31l-1.53.45q-.51-.02-.74-.31c-.17-.23-.17-.57.13-.86zm-2.99-.72c-.3.45-.07 1 .5 1.2l-2.86.84a.7.7 0 0 1-.88-.48.6.6 0 0 1 .4-.72zm2.7-.78q.16.67.26 1.27l-1.86.54c-.74-.07-.9-.51-.66-1.15zm-3.21-.66c-.22.84.17 1.03.62 1.16l-2.93.86a.7.7 0 0 1-.87-.48.6.6 0 0 1 .4-.73zm2.77-.8q.22.64.37 1.23l-2.1.61a1 1 0 0 1-.64-.6.6.6 0 0 1 .16-.6zm-3.38-.57c-.24.49-.02 1.02.56 1.13l-2.9.85a.7.7 0 0 1-.87-.48.6.6 0 0 1 .4-.72zm2.78-.85a8 8 0 0 1 .52 1.18l-2.24.66c-.3-.03-.64-.17-.73-.62q-.03-.29.2-.53zm-3.6-.48c-.19.63.14.98.6 1.1l-2.92.85a.7.7 0 0 1-.84-.46.56.56 0 0 1 .39-.7zm2.74-.86q.4.55.73 1.12l-2.34.68c-.53-.04-.9-.49-.7-1.07zm-3.88-.4c.17.65.37.98.62 1.09l-2.72.8a.67.67 0 0 1-.83-.46.54.54 0 0 1 .37-.68zm2.9-.84q.43.5.82 1.02l-2.47.72c-.43-.08-.87-.57-.55-1.1zm-4.06-.4.14.09c.28.21-.1.6.72.94l-2.9.85a.67.67 0 0 1-.83-.46.55.55 0 0 1 .37-.68zm17.04-3.22c.18-.03.18.24.02.66-.18.46-.77.5-.71.6.24.4 1.02.23 1.23.3.15.05-.08.58-.58.9-.36.25-.24.36.24.4.22.01.52-.2.82-.2.1 0 .08.55-.22.78-.7.53-.13.5.75.26.49-.14.4.01.21.37-.11.22-.34.33-.27.4.09.09.82.2 1.37-.49.1-.13.13-.32-.14-.52-.96-.72-1.35-1.57-1.67-2.87-.11-.43-.17-2.16-.08-2.55.05-.24-.01-.23-.62.07-1.46.74-1.71 2.15-.35 1.9m4 .98c-2.03.02-2.56 1.36-1 2.3.24.16.19.2.19.4 0 .3.29.48.53.5.53.05.82-.15.92-.81.05-.33.14-.5.47-.94q.24-.34.19-.37c-.08-.03-.28.02-.45.3-.54.92-1.94.7-2.25.04-.22-.47.17-1.1 1.57-1.1.98 0 1.02.03 1.11.36.07.27.24.16.6-.38.6-.89.51-1.04-.09-.71-.57.3-1.06.4-1.8.4m-18.1 1.4.91 1-2.39.7a1 1 0 0 1-.61-.41c-.14-.18-.13-.48.07-.71zm-3.69-.5c-.16.6.01.85.6 1.04l-2.92.85a.67.67 0 0 1-.83-.45.55.55 0 0 1 .39-.69zm2.49-.77.93.99-2.32.68c-.62-.13-.81-.63-.52-1.08zm-3.65-.48c-.04.67.4.88.85.96l-2.99.87a.76.76 0 0 1-.94-.5l-.05-.13a.43.43 0 0 1 .32-.56zm22.48 1.2c.4 0 .74.02 1.1.4.04.04.08-.08.1-.14.07-.12.19-.26.06-.34-.24-.17-.93-.22-1.46-.05-.32.1-.18.13.2.13m-19.94-1.96.86.98-2.06.6c-.81-.02-.95-.67-.9-1.05l.29-.17zm-3.38-.57c.1.49.4.72.72.91l-3.13.78a.6.6 0 0 1-.62-.25l-.28-.44a.46.46 0 0 1 .34-.7zm23.3.76c-.1.16-.26.39-.5.6-.17.14 1.75-.02 2.24-.3.34-.2.72-.16.82-.14.15.04.12-.17 0-.55q-.42-1.15-1.38-.8c-.41.15-.77.49-1.19 1.19m-.07-1.64c-.18.17-.44.42-.62.55-.75.52-1.08 1.04-.8 1.32.5.49 1.41-.33 1.42-1.3 0-.42.36-.81 1.34-.93.26-.03.33-.13.05-.13-.3 0-.57.01-.62.03-.3.1-.48.2-.77.46m-20.7.24q.25.45.64.95l-2.01.5c-.42-.21-1-.86-.5-1.3zm21.75-.2c.27-.04.66-.09.94.01.59.23 1 .8 1.02 1.2.01.22.15.32.2.08.05-.17.23-.59.24-1 0-.07-.01-.2-.08-.24-.06-.04-.35-.01-.48-.04-.16-.03-.43-.1-.57-.17-.33-.17-.98-.11-1.33-.01-.08.02-.21.2.06.16m-24.4.64-3.12.09a.6.6 0 0 1-.58-.47l-.06-.33a.83.83 0 0 1 .91-.97l2.22.25c.08.74.46 1.24.64 1.43M35 26.78c.3.3.88.2 1.1-.1.62-.78 1.1-.98 1.87-.99.25 0 .14-.11-.1-.33-.3-.3-.5-.32-.87-.3-.29.02-.39 0-.39-.09 0-.35-.6-.56-1.02-.3-.73.45-1.05 1.65-.59 2.1m2.51-1.33c.03.04-.61.22-.87.4-.11.08-.17.16-.27.21-.03.01-.41 0-.56-.16-.16-.18-.07-.6.23-.6.18 0 .07.15 0 .32-.03.09-.01.21.04.23.54.16.38-.69.06-.74-.24-.04-.7.13-.72.5-.02.17 0 .33.21.5.18.13.4.1.58.08-.24.25-.48.46-.77.44-.37-.02-.42-.7-.18-1.18.15-.28.5-.6.77-.59.37.02.33.27.5.44.1.1.84-.06.98.15m-21.5.93-2.3.1c-.63-.47-.66-2.29-.34-2.52.66.77 1.6 1.05 2.55 1.2q-.04.24-.06.53c0 .18 0 .5.16.69m18.64-2c-.2.17-.26.16-.47-.16a1 1 0 0 0-.8-.49c-.63 0-1.16.58-1.2.67-.05.07.07.1.1.24.12.45.59 1.09 1.2 1.12.48.03.9-.14 1.22-.66q.46-.77.97-.96c.47-.17.93.02 1.35.45.07.07.28.1.34.1.13 0 .44.22.6.4.3.38.45.4.37.15-.05-.18-.7-.87-1.06-.99-.33-.1-.69-.68-1.24-.8-.23-.05-.44.11-.63.29zm-21.92 1-2.79-.47a.7.7 0 0 1-.57-.8l.08-.48a.63.63 0 0 1 .87-.48l2.42 1.07c-.04.36-.02.9 0 1.17m3.25-.45a4.2 4.2 0 0 1-2.36-1.1c-.5-.6.64-2.1 1.17-1.7.33 1.14.93 1.56 1.63 2.08q-.29.27-.44.72m.6-.85a4.5 4.5 0 0 1-1.32-1.86c-.04-.14-.06-.38 0-.49.43-.69 1.5-.6 1.88-.54.08 0 .12.09.12.14-.1.78.04 1.38.24 1.89.01.03.07.49 0 .5q-.52.08-.92.36m-3.79-.17-2.52-1.32a.8.8 0 0 1-.32-1.06l.03-.06a.88.88 0 0 1 1.35-.26l1.9 1.6c-.17.28-.34.71-.44 1.1m5.18-.24c-.32-.44-.4-1.6-.36-2.3.01-.14.1-.18.14-.18.7.03 1.2.22 1.74.7.06.06.08.21.05.25a2.4 2.4 0 0 0-.43 1.56q-.54-.04-1.14-.03m-4.6-1.08c-.48-.4-1.85-1.55-1.99-1.77-.2-1.2.92-1.9 1.66-1.63.2.3.93 1.84 1.2 2.42-.42.33-.7.72-.87.98M19.12 21c.39-.47 1.3-1.54 1.67-1.9.28-.25.77-.38 1-.2.21.18.58.56.65.86q.16.62-.35.93c-.4.25-1.6.92-2.12 1.2q-.35-.6-.85-.89m-4.62.42c-.3-.6-1.09-2.14-1.27-2.58-.05-.13-.08-.33.03-.46a2.8 2.8 0 0 1 1.95-.78q.33.04.32.32l.08 2.9c-.4.13-.79.37-1.11.6m3.04-.77.94-2.47c.05-.12.15-.46.33-.55.2-.1.67-.16 1-.08.31.08.67.36.78.57.11.22.05.47-.08.67-.25.4-1.2 1.58-1.6 2.1a4 4 0 0 0-1.37-.24m-1.66.1c-.01-.67-.03-2.54.04-3.06a.6.6 0 0 1 .45-.52c.32-.1 1.14-.1 1.46.01.26.09.47.32.43.58-.07.5-.71 2.19-.98 2.88a14 14 0 0 0-1.4.1m12.23-9.47H6.32l-.04-.3h21.88zm.14-.87H6.18l-.1-.63a2 2 0 0 0 1.33-1 4 4 0 0 0 .28-.58v-.62l-.05.02a.5.5 0 0 0-.24.24l-.08.21-.04.1-.1.22q-.14.27-.34.5-.33.37-.81.5h-.01L4.74 1.5h24.92l-1.25 7.93-.24-.04q-.48-.14-.82-.51a3 3 0 0 1-.43-.72l-.04-.1-.08-.2a.5.5 0 0 0-.24-.25l-.06-.02v.62l.05.1q.1.25.24.48.2.31.46.55a2 2 0 0 0 1.1.5zm-13.49-.97H15q.2-.01.38-.06.49-.14.81-.51a3 3 0 0 0 .44-.72l.04-.1.08-.2a.5.5 0 0 1 .24-.25l.05-.02v.62l-.04.1-.24.48q-.2.31-.46.55a2 2 0 0 1-1.27.5l-.27.02-.24-.01a2 2 0 0 1-1.27-.5 3 3 0 0 1-.46-.56 4 4 0 0 1-.28-.58v-.62l.05.02q.16.08.24.24l.08.21.04.1.1.22q.14.27.34.5a1.6 1.6 0 0 0 1.19.57zm9.34.4h-.25a2 2 0 0 1-1.27-.5 3 3 0 0 1-.46-.56 4 4 0 0 1-.28-.58v-.62l.05.02q.15.08.24.24l.08.21.04.1.1.22q.14.27.34.5a1.6 1.6 0 0 0 1.18.57h.46q.19-.01.38-.06.48-.14.8-.51a3 3 0 0 0 .44-.72l.04-.1.09-.2a.5.5 0 0 1 .23-.25l.06-.02v.62a3 3 0 0 1-.29.58q-.18.31-.45.55a2 2 0 0 1-1.27.5zm-4.66-.4h.22q.19-.01.38-.06.48-.14.81-.51a3 3 0 0 0 .44-.72q0-.06.04-.1l.08-.2a.5.5 0 0 1 .23-.25l.06-.02v.62l-.04.1-.24.48q-.2.31-.46.55a2 2 0 0 1-1.27.5h-.51a2 2 0 0 1-1.27-.5 3 3 0 0 1-.46-.55 4 4 0 0 1-.28-.58v-.62l.05.02q.16.08.24.24l.08.21.04.1.1.22q.14.27.34.5a1.6 1.6 0 0 0 1.18.57zm-9.57 0h.45q.2-.01.38-.06.49-.14.81-.51a3 3 0 0 0 .44-.72l.04-.1.08-.2a.5.5 0 0 1 .24-.25l.05-.02v.62l-.04.1-.24.48q-.2.31-.46.55a2 2 0 0 1-1.27.5h-.5a2 2 0 0 1-1.27-.5 3 3 0 0 1-.47-.55 4 4 0 0 1-.28-.58v-.62l.06.02q.15.08.23.24l.08.21.04.1.1.22q.14.27.34.5a1.6 1.6 0 0 0 1.19.57M7.63 7.4l-.17.14a.2.2 0 0 1-.11-.06v-.03l.37-.33h.08l.37.36-.1.06h-.02l-.27-.24h-.04zm4.67 0-.16.14h-.01a.2.2 0 0 1-.11-.06v-.03l.37-.33h.08l.37.36-.1.06h-.02l-.27-.24h-.04zm4.67 0-.17.14a.2.2 0 0 1-.11-.06v-.03l.37-.33h.08l.37.36-.1.06h-.02l-.27-.24h-.04zm4.67 0-.16.14h-.01a.2.2 0 0 1-.11-.06v-.03l.37-.33h.08l.37.36a.2.2 0 0 1-.11.06h-.01l-.27-.24h-.04zm4.67 0-.17.14a.2.2 0 0 1-.12-.06v-.03l.38-.33h.08l.37.36a.2.2 0 0 1-.11.06h-.01l-.27-.24a.03.03 0 0 0-.05 0zm.13-2.19.66-.61s.8-.8 1-.98c.13-.1.25-.1.25-.1s-.8 1.48-.79 2.35c0 .95-.62 1.48-.62 1.48l-.5-.44-.5.44s-.63-.53-.63-1.48c0-.87-.79-2.35-.79-2.35s.13 0 .25.1c.21.19 1 .98 1 .98zm-18.68 0 .66-.61s.8-.8 1-.98c.13-.1.26-.1.26-.1s-.8 1.48-.8 2.35c0 .95-.62 1.48-.62 1.48l-.5-.44-.5.44s-.63-.53-.62-1.48c0-.87-.8-2.35-.8-2.35s.13 0 .25.1c.22.19 1.01.98 1.01.98zm4.67 0 .66-.61s.8-.8 1-.98c.13-.1.26-.1.26-.1s-.8 1.48-.8 2.35c0 .95-.62 1.48-.62 1.48l-.5-.44-.5.44s-.63-.53-.62-1.48c0-.87-.8-2.35-.8-2.35s.13 0 .25.1l1.01.98zm4.67 0 .66-.61s.8-.8 1-.98c.13-.1.25-.1.25-.1s-.79 1.48-.79 2.35c0 .95-.62 1.48-.62 1.48l-.5-.44-.5.44s-.63-.53-.62-1.48c0-.87-.8-2.35-.8-2.35s.13 0 .25.1l1.01.98zm4.67 0 .66-.61s.8-.8 1-.98c.13-.1.25-.1.25-.1s-.8 1.48-.79 2.35c0 .95-.62 1.48-.62 1.48l-.5-.44-.5.44s-.63-.53-.63-1.48c0-.87-.79-2.35-.79-2.35s.13 0 .25.1c.21.19 1 .98 1 .98zm-5.23-.72-.97-.9a.26.26 0 0 1 .01-.4.3.3 0 0 1 .2-.05q.13.01.19.11l.67 1.04zm9.34 0-.97-.9a.26.26 0 0 1 .01-.4.3.3 0 0 1 .2-.05q.12.01.19.11l.66 1.04zm-14 0-.98-.9a.26.26 0 0 1 .01-.4.3.3 0 0 1 .21-.05q.11.01.18.11l.67 1.04zm9.33 0-.97-.9a.26.26 0 0 1 .01-.4.3.3 0 0 1 .2-.05q.12.01.19.11l.67 1.04zm-14 0-.98-.9a.26.26 0 0 1 .01-.4.3.3 0 0 1 .21-.05q.12.01.18.11L7.3 4.3zm1.01-.2.67-1.04a.26.26 0 0 1 .39-.05q.09.06.1.19 0 .11-.1.2l-.96.9zm18.68 0 .67-1.04a.26.26 0 0 1 .38-.05q.1.06.1.19 0 .11-.09.2l-.97.9zm-4.67 0 .67-1.04a.26.26 0 0 1 .38-.05q.1.06.1.19 0 .11-.09.2l-.96.9zm-4.67 0 .67-1.04a.26.26 0 0 1 .38-.05q.1.06.1.19 0 .11-.08.2l-.97.9zm-4.67 0 .67-1.04a.26.26 0 0 1 .38-.05q.1.06.1.19 0 .11-.08.2l-.97.9zm8.47-.07-.54-1.07a.26.26 0 0 1 .14-.36.3.3 0 0 1 .22.01q.09.06.12.17l.26 1.12zm-4.66 0-.55-1.07a.26.26 0 0 1 .14-.36.3.3 0 0 1 .22.01q.1.06.13.17l.25 1.12zm-4.67 0-.55-1.07a.26.26 0 0 1 .14-.36.3.3 0 0 1 .22.01q.1.06.13.17l.25 1.12zm14 0-.54-1.07a.26.26 0 0 1 .14-.36.3.3 0 0 1 .21.01q.11.06.13.17l.26 1.12zm-18.67 0L6.8 3.15a.26.26 0 0 1 .14-.36.3.3 0 0 1 .22.01q.1.06.13.17l.25 1.12-.2.13m5.28-.13.25-1.12a.26.26 0 0 1 .35-.18.26.26 0 0 1 .14.36l-.55 1.07zm14 0 .26-1.12a.26.26 0 0 1 .34-.18.26.26 0 0 1 .15.36l-.55 1.07zm-18.67 0c.09-.4.2-.84.25-1.12a.26.26 0 0 1 .35-.18.26.26 0 0 1 .14.36l-.55 1.07-.2-.13m9.34 0 .25-1.12a.26.26 0 0 1 .34-.18.26.26 0 0 1 .15.36l-.55 1.07-.2-.13m4.67 0 .25-1.12a.26.26 0 0 1 .34-.18.26.26 0 0 1 .15.36l-.55 1.07-.2-.13m4.35-.03-.16-1.41a.26.26 0 0 1 .26-.3q.12 0 .2.1.08.08.07.2l-.16 1.41zm-4.67 0-.16-1.41a.26.26 0 0 1 .27-.3q.11 0 .2.1.07.08.06.2l-.16 1.41zm-9.34 0-.15-1.41a.26.26 0 0 1 .26-.3q.12 0 .2.1.08.08.06.2l-.16 1.41zm-4.66 0-.1-1.41a.26.26 0 0 1 .26-.3q.12 0 .2.1.08.08.06.2l-.15 1.41zm9.33 0-.15-1.41a.26.26 0 0 1 .26-.3q.12 0 .2.1.08.08.06.2l-.16 1.41zM29.75.92H4.65L4.5 0h25.4z" clip-rule="evenodd"/></svg>