<svg xmlns="http://www.w3.org/2000/svg" fill="none" viewBox="0 0 48 48"><path fill="#2F4A98" fill-rule="evenodd" d="M41.71 48H7.21v-5.43l.68-.79a24 24 0 0 1-4.59-5.63l8.92 5.1h.99L2.42 34.53q-.51-1.07-.93-2.18l12.82 8.92h.67l-14-10.49q-.4-1.3-.63-2.67l15.64 13.16h.7L.08 25.9A24 24 0 0 1 0 23.58l17.37 17.68h.5L.1 21.73q.12-1.34.4-2.63l18 22.16h.46L.99 17.16q.33-1.12.77-2.2l17.7 26.3h.42L2.64 13.05a24 24 0 0 1 1.28-2.19l16.43 30.4h.39l-4.22-8.72-.14-.07a3 3 0 0 1-.6-.42q-.26-.26-.43-.56l-.4-.81-.2-.35-.18-.13-.15-.17-.07-.16-.1-.09-.05-.13v-.11l.02-.09.03-.18.06-.17q.14-.21.4-.31l-2.6-5.35-.08-.02c-.26-.1-.54-.21-.71-.44a1 1 0 0 1-.2-.43l-.03-.3v-.3l-.01-.01-.06-.07-.25-.27-.18-.25a1 1 0 0 1-.12-.46q0-.1.04-.2l.12-.32L5.18 9.1q.74-.93 1.56-1.78L8.3 11q0-.18.03-.35c.08-.37.35-.68.7-.82a1 1 0 0 1 .43-.04q.15.04.28.1l.24.15L8.4 5.77a24 24 0 0 1 1.77-1.38l2.11 6.66.2-.18.68-.67q.24-.24.52-.4l-1.76-6.54q1.08-.63 2.22-1.15l2.08 9.67.2-.24.1-.18q.07-.22.05-.45l-.04-.54q-.02-.25.06-.48c.1-.23.35-.35.57-.41l.35-.08h.02l-1.35-8.1Q17.22.96 18.3.69l1.04 8.66.38-.01.8-.02h.54l.1-.01L20.5.25Q21.65.1 22.84.03l.27 11.31a1 1 0 0 1 .16.29q.09.28.1.57l.02.25.01.4.03.26.07.66v.16h.01l.13-.07q.25-.15.47-.35l.4-.35.15-.12.23-.17.33-12.84q1.15.06 2.28.22l-.9 12.22q.56-.06 1.1-.04.3.02.58.09L29.7.68q1.08.27 2.12.63l-2.05 12.24.48-.02.35-.02a6 6 0 0 1 .8.04L33.86 2.1q1.14.52 2.22 1.15l-3.05 11.28.08.03.33.19a2 2 0 0 1 .82.89l3.57-11.26q.92.65 1.77 1.38l-5.68 15.37q.08.15.1.33l-.02.22q0 .1-.02.17l-.01.25q-.03 1.08.1 2.16l7.19-16.94q.82.85 1.56 1.78l-7.53 15.57q.34.14.56.44a1 1 0 0 1 .17.53q0 .08-.02.15l8.08-14.94q.7 1.06 1.28 2.19L35.4 29.33l.22.16.54.33.05.03 10.02-14.88q.44 1.07.77 2.2L36.93 30.68l.05.16q.06.34.07.7l.24.1h.01L47.5 19.1q.27 1.3.4 2.63l-12.28 13.5v.47h.04l.2-.02h.24L48 23.58v.1a24 24 0 0 1-.08 2.23l-11.05 10.2v.1c-.02.07-.02.25-.02.33l-.02.48q0 .1-.04.2l-.02.03 10.88-9.15-.03.17q-.22 1.28-.6 2.5l-14 10.49h.67l12.82-8.92-.05.14q-.4 1.04-.88 2.04l-10.79 6.74h.99l8.92-5.11-.05.08a24 24 0 0 1-4.02 5.07l1.08 1.27zm-.6-4.83H7.81v4.23h33.3zm-10.15 2.9q0 .2-.17.53-.16.33-.33.5a1 1 0 0 1-.3-.08 1 1 0 0 1-.27-.16q.3-.13.52-.3.27-.22.32-.38a.7.7 0 0 0-.3-.36l.23-.43q.12.1.2.32.1.2.1.37m9.6.6-.27.24-.25-.25.26-.25zm-7.4-.03-.27.25-.25-.26.26-.24zM12.42 44.1h.35v1.5q0 .3-.04.46a1 1 0 0 1-.18.33.5.5 0 0 1-.35.12.5.5 0 0 1-.4-.2 1 1 0 0 1-.14-.57l.33-.05q0 .2.04.29.06.12.18.12t.16-.09a1 1 0 0 0 .05-.38zm2.3 2.37h-.39l-.15-.54h-.7l-.14.54h-.37l.68-2.37h.37zm-3.26-1.97h-.94v.53h.88v.4h-.88v.64h.98v.4h-1.33V44.1h1.3zm3.8 1.97h-.36V44.1h.74q.28 0 .4.07.14.06.21.22.08.17.08.38 0 .27-.12.44a.5.5 0 0 1-.34.22q.11.08.19.2l.2.38.2.46h-.41l-.26-.51-.18-.35-.1-.1-.18-.03h-.08zm2.97 0h-.39l-.15-.54H17l-.14.54h-.37l.68-2.37h.37zm1.26-1.97H19v1.97h-.36V44.5h-.51v-.4h1.38zm1.5 1.97h-.6V44.1h.7q.21 0 .3.03a.4.4 0 0 1 .19.1q.08.06.13.2l.06.27a1 1 0 0 1-.07.3q-.06.15-.18.21.16.07.25.22t.08.36q0 .15-.05.31a1 1 0 0 1-.15.24.4.4 0 0 1-.24.12zm2.73 0h-.38l-.16-.54h-.7l-.14.54h-.37l.68-2.37h.37zm.51 0h-.32V44.1h.34l.71 1.59V44.1h.33v2.37h-.35l-.7-1.54zm1.79 0h-.36V44.1h.36v1.06l.7-1.06h.48l-.66.93.7 1.44h-.46l-.48-1.1-.28.39zM9.96 44.5h-.52v1.97H9.1V44.5h-.52v-.4h1.39zm28.3 1.65h-.1a.6.6 0 0 1-.34-.13l-.23-.25-.22-.25a1 1 0 0 1-.01.3.7.7 0 0 1-.47.28 3 3 0 0 1-.55.05q-.49 0-.65-.07-.25-.1-.25-.42 0-.28.2-.6.07 0 .1.06-.1.15-.1.3 0 .2.23.25.14.04.55.04.38 0 .55-.03.16-.03.27-.1a1.4 1.4 0 0 0-.65-.53q0-.33.05-.55.7-.4 1.34-.53l-.2.41a4 4 0 0 0-.99.39 2.3 2.3 0 0 1 .88.63l.24.22q.12.09.26.09h.16q.35 0 .35-.11 0-.07-.18-.32l.25-.34q.18.25.18.52-.06.34-.15.46a.6.6 0 0 1-.51.23m1.64 0h-.1q-.3 0-.4-.26a3 3 0 0 1-.09-.77l-.02-.4a1 1 0 0 0-.1-.4l.29-.31q.07.12.1.36v.85q0 .21.03.31.05.18.22.18h.14q.35 0 .35-.11 0-.07-.19-.32l.25-.34q.2.25.19.52-.06.33-.16.46a.6.6 0 0 1-.5.23m-10.13-.76a1 1 0 0 1-.1.27l-.14.24q-.07.06-.45.15-.45.1-.82.1-.5 0-.7-.2-.11-.13-.12-.37 0-.34.2-.64h.01q.07 0 .1.06-.1.23-.1.35 0 .36.77.36.7 0 1.1-.17-.07-.17-.18-.32l.24-.33q.08.1.14.26.05.15.05.24m2.28.76h-.22q-.31 0-.4-.26a3 3 0 0 1-.09-.77l-.02-.4a1 1 0 0 0-.1-.4l.29-.31q.07.12.09.36v.85q0 .21.04.31.04.18.22.18h.26q.26 0 .43-.06.11-.03.43-.2a4 4 0 0 0-.7-.23l-.11.04-.1.17-.05.01q-.05 0-.07-.04.1-.29.17-.4.1-.2.2-.2.08 0 .45.17c.37.17.43.17.55.17q.18 0 .59-.08l-.17.4q-.21 0-.35.04.1.2.38.2h.34q.35 0 .35-.1 0-.07-.19-.32l.25-.34q.2.25.19.52-.06.33-.16.46a.6.6 0 0 1-.5.23h-.14a.6.6 0 0 1-.44-.17 1 1 0 0 1-.22-.42q-.52.38-.61.42-.3.17-.6.17m-11.01-.71h-.28v.63h.32l.24-.01q.08-.02.13-.1a.4.4 0 0 0 .05-.2.4.4 0 0 0-.04-.18.2.2 0 0 0-.1-.1 1 1 0 0 0-.32-.04m2.04.1-.24-.88-.23.88zm-9 0-.24-.88-.24.88zm3.51 0-.24-.88-.23.88zm-2.05-1.04h-.28v.6h.26a1 1 0 0 0 .32-.02.2.2 0 0 0 .1-.1.4.4 0 0 0 .03-.18.4.4 0 0 0-.04-.2.2.2 0 0 0-.13-.09zm5.42 0h-.2v.55H21l.25-.01q.09-.02.14-.09a.3.3 0 0 0 .05-.18.3.3 0 0 0-.04-.18.2.2 0 0 0-.13-.08zm7.62.22-.24.22-.24-.23.25-.22zm.59-.03-.24.22-.24-.24.25-.21zm9.79-.23-.26.25-.26-.25.27-.25zm-4.02.02-.23.22-.22-.2-.2.21-.25-.2.23-.24.22.2.2-.2zM21.5 41.26l-1.25-3.4h-.03l-.09-.01-.12-.06a.3.3 0 0 1-.07-.28l.08-.1.04-.04-.4-1.12-.14.07a1 1 0 0 1-.46.06l2.07 4.88zm.35 0h.32l-.89-3.29-.48-.03zm.7 0h.31L22.32 38h-.47zm.63 0h.32L23.27 38h-.48zm.98 0 .09-3.3c-.12.08-.25.06-.38.04h-.12l.08 3.26zm.64 0 .55-4.51-.1.21a2 2 0 0 1-.48.44l-.29 3.86zm.64 0 1.22-5.68-.09.18-.07.14c-.12.22-.28.44-.53.5l-.04.02-.81 4.84zm.37 0h.32l1.4-4.4-.07-.05-.07-.15a1 1 0 0 1-.02-.37l.02-.1.04-.19a9 9 0 0 0 .08-1.02zm.67 0h.37l1.62-3.81-.08-.03a.4.4 0 0 1-.24-.25l-.02-.17v-.02h-.07zm.77 0h.39l1.9-3.53a2 2 0 0 1-.54-.08zm1.28 0 2.4-3.56-.65.01-2.17 3.55zm.94 0 2.94-3.62h-.01l-.7.04-2.68 3.58zm1.15 0 3.67-3.75-.41.03-.4.03-3.36 3.69zm1.38 0 4.65-3.92a1 1 0 0 1-.28.06h-.1l-.15-.01-.19-.01-.3.02-.17.01-4.16 3.85zm-12.3-5.64h.13v.01h.04l.03.02h.04l.02.01h.02l.01.01.02.01h.02l.02.02h.02l.01.01.03.01.23.14q.21.15.38.32c.21.27.27.63.18.96q-.05.15-.14.3l.4.03h.16l.12.01h.29l.1.01h.91l.48.01h.74l.04-.09.11-.15.17-.12.14-.1.07-.05.07-.05.12-.1.04-.03.02-.02.02-.02.02-.02.02-.02.02-.02v-.02h.02l.05-.14.06-.16.04-.09.12-.17q.15-.14.34-.18h.05c.11-.02.22 0 .33-.02q.03 0 .05-.02l.02-.01.01-.02.02-.02.02-.01.01-.02.02-.02.01-.02.02-.02.02-.03v-.02l.02-.03.01-.01.04-.08.22-.45.13-.24.16-.3.21-.3.13-.11.02-.02.01-.01.02-.01.02-.02h.01l.03-.02.03-.03c.17-.1.37-.2.56-.12l.12.08.1.1.08.2q.04.2.05.4a4 4 0 0 1 0 .77v.01l-.02.18v.07l-.01.03v.06l-.01.04v.02l-.02.11-.06.33v.09l.22.01h.03l.03.01h.05l.02.01h.02l.1.03q.2.08.26.26l.03.18h.11a.5.5 0 0 1 .35.15l.07.07h.03l.03.01.07.02q.27.03.54.02h.11l.25-.01h.13l.57-.02h.4l.15-.01h.04l.2-.01.18-.01h.04l.22-.02.72-.04.55-.04.57-.04.48-.03.4-.03.41-.04h.05l.06-.01h.04l.05-.01h.01l.43-.03h.14l.29.02.02-.55.01-.18-.14.01h-.35l-.1.01h-.05l-.05.01h-.05l-.48.05-.2.02h-.33l-.27-.07-.3-.15-.08-.03h-.05l-.02-.01h-.08l-.05-.01-.2-.02c-.06 0-.06 0-.11-.02a1 1 0 0 1-.36-.14l-.05-.03-.03-.02-.02-.01-.02-.02h-.01l-.02-.02-.03-.02h-.02v-.01l-.08-.05-.04-.03-.02-.01-.02-.01-.04-.03-.14-.07-.03-.01h-.01l-.03-.02-.21-.04-.54-.05h-.51l-.06.01h-.02l-.05.01h-.02l-.06.01-.1.02-.26.04-.16.01q-.22.02-.46 0a1 1 0 0 1-.33-.1l-.02-.02h-.01v-.01h-.02l-.01-.02-.04-.02-.02-.02-.01-.01-.02-.01-.01-.02h-.02v-.01l-.01-.01-.02-.01-.01-.02-.03-.02-.1-.09-.41-.3-.05-.03-.02-.02-.03-.02-.03-.03-.02-.02h-.01v-.01h-.01l-.01-.01-.01-.01v-.01h-.01v-.01l-.03-.02-.05-.06v-.01l-.02-.02-.01-.01v-.01l-.02-.01v-.02l-.03-.02-.02-.04-.02-.03v-.01l-.01-.01v-.01l-.01-.01-.01-.01v-.02h-.01v-.01l-.02-.03-.02-.04v-.01l-.01-.02v-.01l-.01-.02v-.01l-.01-.01v-.01l-.01-.02v-.01l-.04-.12q-.07-.29-.1-.57l-.02-.12-.08-.17a.3.3 0 0 0-.14-.1H28l-.02-.01h-.03l-.13-.02h-.07a1 1 0 0 0-.48.16l-.08.04-.46.26-.3.14h-.02l-.03.01-.01.01h-.01l-.02.01h-.02l-.01.01h-.01l-.02.01h-.02l-.05.02h-.01l-.03.02h-.02l-.03.01h-.02l-.01.01h-.01l-.02.01h-.02l-.04.02h-.03l-.02.01h-.03l-.02.01-.09.02-.04.01-.05.01q-.34.07-.68.11l-.06.01-.32.04h-.12l-.03.01h-.14q-.23 0-.43-.07-.16-.07-.28-.18l-.01-.01-.02-.01-.06-.06-.02-.02v-.01l-.02-.01-.02-.03-.02-.01v-.01l-.04-.04h-.01l-.02-.03-.02-.02-.03-.04h-.01l-.07-.08-.03-.04-.02-.02-.01-.02-.04-.04-.1-.1-.02-.01-.02-.02h-.01l-.01-.01-.01-.01H23v-.02h-.02l-.01-.01h-.01l-.02-.01-.02-.02q-.31-.14-.64-.18l-.15-.03h-.01l-.43-.1h-.01l-.02-.01h-.01l-.02-.01h-.01l-.02-.01h-.01l-.01-.01h-.02l-.01-.01-.04-.02h-.02l-.03-.02-.03-.01-.41-.22-.44-.34h-.01l-.03-.03-.02-.01v-.01l-.05-.04-.09-.07-.02-.02v-.01l-.11-.1-.11-.09-.1-.07-.02-.03-.06-.04-.2-.16-.04-.04-.1-.09-.02-.01-.02-.01-.05-.05-.02-.01-.02-.02-.03-.02-.02-.02-.04-.04-.48-.44q-.15-.14-.27-.3-.19-.29-.27-.6a5 5 0 0 1-.16-.89l-.01-.3-.02-.13q-.01-.07-.05-.12l-.04-.02-.13.01-.19.04h-.26l-.19-.07a1 1 0 0 1-.41-.26q-.09-.13-.14-.28v-.01l-.09-.03h-.06l-.02.01h-.01l-.02.01-.01.01-.02.01-.02.01-.02.02-.05.05-.22.23-.3.31-.17.23-.02.02-.01.03-.03.05-.02.02v.02h-.01l-.02.03-.01.02v.01l-.02.02-.02.03-.08.1-.13.13q-.12.08-.25.14l-.13.06H15l-.06.04-.17.09-.01.01-.02.1v.04l.04.1.08.2.06.05.16.12.07.06.06.08.1.15.39.82.12.22a2 2 0 0 0 .3.4l.02.02h.01l.02.03q.29.23.62.38l.09.04.03.01.05.02.12.06.15.06.14.06.37.18q.16.07.28.17a3 3 0 0 1 .57.61l.01.02.01.01.01.02.02.02v.01l.02.02.03.04.02.03.01.03.03.04.01.03.02.03.01.02.02.03v.02a2 2 0 0 1 .17.49v.05l.01.03v.03l.01.02v.03l.01.06v.05l.01.04.03.5.02.45v.34l.01.1.26-.02h.02l.01-.01.02-.05.06-.08.02-.01.01-.01.02-.01.01-.01.02-.01h.02l.01-.02h.04l.02-.01h.01l.03-.01h.05m.67.94.07.21zm-4.96-23.83-.22-.06-.05-.01h-.07l-.03-.01h-.41l-.12.01h-.05l-.13.02-.04.01.05-.37v-.08l.01-.09.01-.1V12l.01-.04.01-.12a12 12 0 0 0 0-1 1 1 0 0 0-.09-.46q-.04-.13-.16-.17h-.11v.01H14v.01h-.02l-.02.01-.02.01-.02.01-.03.02-.02.01h-.01l-.03.03-.03.02q-.16.11-.28.24l-.6.59a10 10 0 0 1-.73.6l-.16.1a2 2 0 0 1-.65.2h-.04a.6.6 0 0 1-.37-.1q-.22-.18-.37-.4l-.05-.07-.02-.02-.3-.44-.17-.22a2 2 0 0 0-.62-.49l-.07-.02q-.08 0-.15.02-.16.06-.26.19l-.12.22-.02.15v.28a6 6 0 0 0 .22 1.58l.01.01.02.1.03.1.03.08v.02l.03.08q.09.27.2.51l.02.06.01.02.02.03.02.05.03.05.02.02v.01l.04.06.02.03.02.03.02.02.02.02.03.04.03.3v.1l.01.05.01.14c.05.38.1.77.28 1.12l.15.24.24.3.1.13.02.02.05.07.17.2.02.02.05.07.04.04.57.75q.09.12.14.27.06.18.06.37 0 .23-.02.45v.08a8 8 0 0 1-.48 1.84l-.08.24v.04q.02.2.17.36l.3.32.08.13q.05.12.06.26v.36l.01.04q0 .1.04.17.05.1.13.18l.07.06.03.01.02.02.03.01.02.02h.01l.03.01H12l.04.02.03.02h.03l.04.02h.01l.05.02.14.05.66.18.07.02.07.02h.02l.05.02.03.01h.01l.03.02h.03l.02.01.02.01h.02l.02.02h.03l.02.02h.03l.02.01a3 3 0 0 1 .71.41l.15.14c.14.18.16.42.17.63v.16l-.01.23-.01.23v.2c.02.15.04.32.16.42l.15.08.04.04q.14.14.19.32.06.18.09.37.06.45.07.89v.76l.12.09.06-.1.06-.09.02-.03.02-.03.02-.02.03-.04.38-.38.16-.18.27-.21.01-.01h.02l.02-.02h.01l.02-.01h.02l.02-.02h.03l.03-.01h.03l.02-.01h.12l.25.04q.1.04.17.1.1.1.15.24l.06.13.04.03.14.06.05.02h.02l.03.02h.08q.14-.01.26-.04h.13l.18.02.22.12q.2.21.23.5l.02.38q.04.42.15.83.07.26.23.47l.1.1.07.08.07.06.07.07.03.03.04.04.03.02.04.04.03.03.04.03.03.03.05.04.03.02.04.04.03.02.04.04.06.05.1.08.03.02.43.36.48.41.38.29.05.03.05.03.06.03.02.01.03.02.03.01.02.01.03.02h.03l.03.02.02.01.03.01.03.01.05.02.05.01h.01l.03.02h.05l.02.01.03.01H22l.03.01h.02l.05.02.45.08.33.1h.03l.03.01.04.02.04.01.02.01.03.02h.02l.01.01.03.01.03.02.04.02.02.01.01.01.02.01.02.01.03.02.03.03.02.01.02.02.03.03h.01l.02.01.01.02h.01l.01.02.02.01.01.02h.01l.01.02.02.01.02.02.01.02.02.02.03.03.02.03.24.26.1.1q.08.06.18.1t.21.04h.13l.04-.01h.04l.04-.01.08-.01.22-.03H25l.07-.02.7-.13h.05l.04-.02.05-.01.04-.01.04-.02h.05l.04-.02.05-.02h.02l.02-.01.02-.01.03-.01h.02l.02-.02h.02l.03-.02h.01l.03-.02h.02l.04-.02.04-.02.58-.32q.15-.09.31-.14l.03-.01.03-.01.04-.01.03-.01h.04l.04-.02h.06l.03-.01h.06l.03-.01h.19l.07.01h.03l.03.01h.03l.02.01.08.03q.19.06.33.2.08.07.13.16l.1.24v.04l.03.08v.06l.01.02v.04l.01.05.01.08v.03l.02.08v.04l.01.03v.01l.01.05.03.14.01.02.01.03.01.02.01.03.01.02.01.02.02.03v.02l.02.02.01.02.02.03.01.02.02.02.02.02.01.02.02.02.16.14.39.27.03.03.04.03.02.02.07.07h.02l.03.04.04.03.03.02.08.05.1.02h.11l.03.01h.09c.26 0 .52-.06.78-.1h.16l.09-.01h.57a6 6 0 0 1 .78.14l.04.02.05.02h.02l.02.02h.02l.02.02h.02l.01.02.03.01.01.01.02.01.02.01.02.01.03.03.04.02.03.02.07.05.08.05.03.02.04.02.04.02.04.02.06.04q.07.03.16.03l.34.03.18.05h.03l.03.01.04.02.3.15.11.03h.18l.3-.02a5 5 0 0 1 .1-1.44l.01-.05.01-.05.01-.02a5 5 0 0 1 .2-.6q.2-.38.5-.68l.18-.2.08-.09.05-.03q.14-.05.28 0h.01l.32.08.12.02h.02l.07-.02.1-.1a.4.4 0 0 0 .07-.28l-.04-.12-.06-.04-.19-.08-.24-.12-.1-.1-.07-.2-.03-.38v-.07l-.01-.06a1 1 0 0 0-.1-.36l-.01-.02-.01-.02v-.01l-.01-.01v-.01l-.02-.01v-.02l-.01-.01-.01-.02-.02-.02-.02-.02-.01-.02-.02-.01v-.01l-.03-.04-.03-.03-.04-.03-.02-.01-.02-.02-.02-.02-.02-.01-.01-.02-.02-.01-.02-.01-.02-.02-.1-.06-.09-.06-.48-.3-.25-.18-.01-.01-.02-.02-.01-.01h-.01l-.01-.01-.02-.02-.04-.04-.03-.03h-.01l-.01-.01-.01-.02h-.01l-.01-.01-.01-.02-.02-.01v-.01h-.01l-.03-.04a2 2 0 0 1-.3-.45l-.01-.05-.02-.04v-.01l-.01-.02v-.02h-.01v-.03l-.01-.02v-.01l-.01-.02v-.01l-.01-.02v-.02l-.01-.01v-.02l-.01-.03v-.02a4 4 0 0 1 .03-1.25l.05-.27.02-.09q.1-.27.29-.46l.41-.44.08-.09c.12-.14.24-.32.18-.52a.5.5 0 0 0-.16-.25 1 1 0 0 0-.24-.16h-.03l-.03-.02-.03-.01H35l-.03-.01h-.01l-.02-.01h-.02l-.02-.02h-.04l-.03-.01-.04-.01h-.02l-.02-.01h-.03l-.02-.01h-.04l-.02-.01h-.05L34.5 25h-.1l-.05-.01h-.17l-.03-.01h-.4l-.03.01h-.07a20 20 0 0 1-.2-2.67v-.24l.01-.02v-.1l.01-.06.03-.27v-.17c-.04-.17-.2-.27-.34-.36l-.1-.06-.17-.11-.08-.06-.02-.02h-.01l-.01-.02-.01-.01h-.01v-.01l-.02-.02-.03-.03-.01-.01-.01-.01v-.01l-.05-.1a.4.4 0 0 1 0-.24q.1-.3.29-.53l.16-.21.17-.22.3-.36.16-.22q.19-.27.29-.58.09-.33.1-.68v-.42l-.01-.05v-.02l-.01-.08v-.07l-.01-.04v-.04l-.01-.03v-.04l-.01-.04v-.04l-.01-.04-.01-.03v-.04l-.01-.04-.07-.27a2 2 0 0 0-.26-.63q-.24-.33-.6-.53l-.21-.11-.12-.06-.19-.04-.48-.04c-.1-.02-.25-.03-.33-.12l-.08-.17-.09-.3-.1-.19h-.02v-.01h-.01l-.01-.01-.01-.01h-.02v-.01h-.02v-.01h-.04l-.02-.01h-.03l-.01-.01h-.04l-.34-.03q-.54 0-1.07.04l-.17.01-.2.02h-.06a3 3 0 0 0-.8-.84l-.3-.18h-.03v-.01h-.02l-.01-.01h-.02v-.01h-.03v-.01l-.28-.06a8 8 0 0 0-1.4.02h-.03l-.1.01-.16.02-.42.05-.17.02-.11.03q-.36.12-.65.38l-.6.51-.14.1q-.25.22-.56.33h-.04l-.04.02q0 .23-.05.44l-.02.18-.04.27-.08.34-.11.2v.01l-.01.01-.01.01-.01.01-.01.01-.01.01-.01.01-.03.02-.02.02h-.01V16h-.02l-.01.01-.16.05h-.02l-.11-.04-.1-.12-.04-.06-.31.1q-.38.07-.77.07h-1.01a5 5 0 0 1-.68-.07h-.16a1 1 0 0 1-.55-.12h-.53l-.17-.01-.2-.05-.14-.1-.19-.2-.37-.43-.11-.12c-.12-.11-.26-.22-.43-.23H17l-.11-.04-.1.01h-.32l-.2-.06a.5.5 0 0 1-.22-.2l-.33-.1-.18-.4a2 2 0 0 1-.13-.51 2 2 0 0 1 0-.65m2.26 20.35.87 2.05-.02-.45-.02-.25a2 2 0 0 0-.11-.46q-.13-.27-.33-.5a2 2 0 0 0-.39-.39m-.58-14.97a3.9 3.9 0 0 1 2.46 3.25q.34.02.62.24-.18.35-.28.74h-.78q-.24 1.11 0 2.23h.78q.14.53.41 1l-.54.55q.61.97 1.57 1.58l.55-.55q.48.27 1 .41v.78q1.12.26 2.23 0v-.78q.54-.15 1.01-.41l1.23 1.23a5.96 5.96 0 0 1-9.31-4.93l.06-1.43c.02-.43-.12-1.17-.52-1.57-.7-.7-1.4-1.16-1.4-1.16zM30.9 28.8a3.9 3.9 0 0 1-2.46-3.24q-.34-.03-.62-.24.18-.36.28-.74h.78q.24-1.12 0-2.23h-.78q-.15-.54-.41-1l.54-.56a5 5 0 0 0-1.57-1.57l-.55.55a4 4 0 0 0-1-.42v-.77a5 5 0 0 0-2.23 0v.77q-.54.15-1.01.42l-1.23-1.24a5.96 5.96 0 0 1 9.31 4.93q-.01.69-.06 1.43c-.02.44.12 1.18.52 1.57.7.7 1.4 1.17 1.4 1.17zm4.73-2.32-.4.41-.1.13-.12.2-.04.2-.03.18-.03.22zm-10.83-7.1q-.81-.15-1.62 0l.02.63q-.58.14-1.09.45L21.7 20q-.7.46-1.15 1.15l.46.43q-.3.5-.45 1.09l-.63-.02q-.16.82 0 1.62l.63-.02q.14.59.45 1.1l-.46.43q.46.68 1.15 1.14l.43-.46q.5.32 1.09.45l-.02.64q.81.15 1.62 0l-.02-.64q.58-.13 1.09-.45l.43.46q.7-.46 1.15-1.14l-.46-.44q.3-.5.45-1.09l.63.02q.17-.8 0-1.62l-.63.02a4 4 0 0 0-.45-1.09l.46-.43q-.46-.7-1.15-1.15l-.43.46q-.5-.3-1.09-.45zm-.99 1.81v-.37h.36v.37c.42-.08.6-.4.6-.37-.07.32-.23.67-.6.76v.77c.74-.08 1.08-.65 1.07-.6-.12.53-.4 1.12-1.07 1.21v.7c.91-.08 1.32-.73 1.31-.68-.14.62-.48 1.28-1.31 1.37v.85c1.17-.09 1.69-.94 1.67-.88-.18.84-.65 1.76-1.85 1.76s-1.67-.92-1.85-1.76c-.01-.06.5.8 1.67.88v-.85c-.84-.08-1.18-.75-1.31-1.37-.01-.04.4.6 1.31.68v-.7c-.68-.08-.96-.67-1.07-1.22 0-.04.33.53 1.07.61v-.77c-.37-.08-.53-.44-.6-.76 0-.03.18.3.6.37m-9.95 2.94.13.32-.01-.13-.04-.12zm4.64-8.81h.57q.54.06 1.07.16l.51.04h.9q.3 0 .6-.05.18-.04.35-.12a1 1 0 0 0 .33-.23q.1-.12.13-.28.05-.23.05-.48l-.02-.54-.09-.84-.03-.66-.08-.52q-.01-.06-.05-.1l-.05-.04-.07-.04-.35-.17a2 2 0 0 1-.4-.3q-.16-.17-.27-.38a3 3 0 0 1-.32-.94V9.8h-.13l-.02.01h-.36l-.52.01h-.11l-.15.01h-.25l-.02.01h-.22l-.11.01-.5.02h-.92l-.44.04h-.04v.01h-.05l-.01.01h-.04v.01h-.03l-.02.01h-.02l-.03.01-.19.08-.06.05-.01.06q-.02.13 0 .26v.01l.01.2.02.28q.03.36-.1.7-.07.15-.17.29-.12.15-.25.28l-.02.01-.01.01-.02.03-.03.02-.03.03h-.01l-.02.02-.01.01-.06.05-.23.2a1 1 0 0 0-.2.25 1 1 0 0 0-.02.4q0 .11.03.23l.05.19q.04.12.1.23l.01.04 1 .3h-.03.1l.08.03.2.07q.32.18.55.46l.02.03.03.03.02.02.02.03.02.03.08.1.04.04.04.05.02.02.03.03.02.03.02.02.1.1.04.04zM22.84.03a24 24 0 0 1 2.38 0z" clip-rule="evenodd"/></svg>