<svg xmlns="http://www.w3.org/2000/svg" fill="none" viewBox="0 0 48 48"><path fill="#CDCCCC" fill-rule="evenodd" d="M31.27 25A7.3 7.3 0 0 0 24 17.7c-4.04 0-7.31 3.22-7.31 7.25s3.27 7.26 7.26 7.31a7.2 7.2 0 0 0 7.3-7.26" clip-rule="evenodd"/><path fill="#51B5D1" d="M21.69 15.73c-.66.2-1.31-.2-1.56-.81L16.5 5.79c-.16-.4 0-.85.35-1.1l4.59-3.33a4.3 4.3 0 0 1 5.19 0l4.59 3.37c.35.2.45.66.35 1.06l-3.63 9.13c-.25.65-.9 1-1.61.86a9 9 0 0 0-2.32-.3c-.76 0-1.57.1-2.32.25m8.07 1.7a9 9 0 0 1 2.87 3.64c.3.6 1.1.96 1.71.76L43.67 19c.4-.1.66-.55.66-.96l-.2-5.7a4.4 4.4 0 0 0-3.23-4.03l-5.5-1.5c-.45-.11-.85.04-1.06.4l-4.94 8.52c-.25.45-.15 1.3.36 1.7m-16.14 4.45-9.38-2.73c-.4-.2-.65-.55-.6-.95l.2-5.7a4.4 4.4 0 0 1 3.13-4.1l5.5-1.56c.4-.1.8.05 1.05.4l4.94 8.48c.35.55.2 1.36-.3 1.76a9.4 9.4 0 0 0-2.87 3.68c-.3.6-1.06.9-1.67.7M47.6 27.5l-2.26-5.19c-.16-.4-.56-.66-.96-.55l-9.68 1.56c-.7.1-1.21.7-1.16 1.41v.3a9 9 0 0 1-1.01 4.24c-.3.6-.1 1.36.45 1.71l8.12 5.5c.35.25.86.2 1.16-.1l4.23-3.78a4.35 4.35 0 0 0 1.11-5.1M14.43 25c0 1.51.4 2.98 1.06 4.24.25.65.1 1.4-.5 1.81l-8.07 5.5q-.62.36-1.16-.1l-4.24-3.73a4.4 4.4 0 0 1-1.16-5.1l2.27-5.19c.15-.35.55-.55.96-.55l9.68 1.5c.7.11 1.2.71 1.16 1.42zm17.54 7.26a1.44 1.44 0 0 0-1.81-.05 9.4 9.4 0 0 1-4.14 2.07c-.65.1-1.16.76-1.1 1.46l.8 9.78c.05.4.4.76.8.81l5.66.96c1.86.35 3.73-.6 4.63-2.32l2.63-5.04a1 1 0 0 0-.16-1.16zm-9.93 2.07a10 10 0 0 1-4.18-2.02c-.5-.45-1.31-.35-1.77.05l-7.26 6.7a.94.94 0 0 0-.15 1.12l2.67 5.04a4.4 4.4 0 0 0 4.7 2.22l5.64-1c.4-.11.7-.46.75-.87l.71-9.78c.05-.7-.45-1.36-1.1-1.46"/></svg>